# Blender v2.69 (sub 0) OBJ File: 'enemy1a.blend'
# www.blender.org
v 0.390060 -0.988384 0.380367
v -0.310912 -0.316732 0.334393
v 0.105688 -0.161842 -0.889958
v 0.908097 -0.315017 0.070432
v -0.510904 0.271637 0.125637
v 0.074053 0.019374 -1.483630
v 0.941018 0.361004 0.580783
v 0.194691 0.315019 1.018089
v 0.598554 0.523791 -0.153808
v -0.000000 1.123655 0.000000
vt 0.000000 0.000000
vt 1.000000 0.000000
vt 1.000000 1.000000
vn -0.647481 -0.696860 -0.308471
vn 0.791053 -0.392661 0.469098
vn -0.474561 -0.443221 0.760491
vn 0.493381 -0.321488 0.808221
vn 0.282054 0.776801 0.563051
vn -0.693822 0.493395 0.524569
vn -0.820669 0.437994 -0.366966
vn 0.557717 0.678931 -0.477498
vn 0.678592 0.717460 -0.157367
vn 0.525574 -0.654501 -0.543507
vn -0.732619 -0.660907 -0.162700
vn -0.847087 -0.408536 -0.339914
vn 0.879536 0.210492 -0.426743
vn 0.174975 -0.939037 -0.295961
vn -0.782542 -0.045688 0.620919
vn 0.900037 0.233820 -0.367780
s off
f 1/1/1 2/2/1 3/3/1
f 1/1/2 4/2/2 7/3/2
f 2/1/3 1/2/3 8/3/3
f 1/1/4 7/2/4 8/3/4
f 8/1/5 7/2/5 10/3/5
f 5/1/6 8/2/6 10/3/6
f 6/1/7 5/2/7 10/3/7
f 9/1/8 6/2/8 10/3/8
f 7/1/9 9/2/9 10/3/9
f 1/1/10 3/2/10 4/3/10
f 6/1/11 3/2/11 5/3/11
f 3/1/12 2/2/12 5/3/12
f 4/1/13 6/2/13 9/3/13
f 4/1/14 3/2/14 6/3/14
f 2/1/15 8/2/15 5/3/15
f 4/1/16 9/2/16 7/3/16
